<?xml version="1.0" encoding="utf-8"?>
<!-- Generator: Adobe Illustrator 26.0.3, SVG Export Plug-In . SVG Version: 6.00 Build 0)  -->
<svg version="1.1" id="Layer_1" xmlns="http://www.w3.org/2000/svg" xmlns:xlink="http://www.w3.org/1999/xlink" x="0px" y="0px"
	 width="500px" height="500px" viewBox="0 0 500 500" enable-background="new 0 0 500 500" xml:space="preserve">
<path d="M250,3C113.59,3,3,113.59,3,250s110.58,247,247,247s247-110.58,247-247S386.41,3,250,3z M384.42,235.14
	c-7.79,60.62-43.04,173.03-117.85,178.09c-101.14,6.84-178.9-180.33-142.41-216.68c33.29-33.17,46.5-21.31,52.75,6.46
	c6.52,28.99-8.2,70.27-2.78,88.59c5.41,18.32,14.71,32.84,25.41,31.81c10.7-1.03,27.29-29.81-8.41-139.86
	c-26.31-81.09,44.29-109.12,50.76-92.24c6.47,16.88-21.04,57.58-14.86,93.03c6.17,35.45,11.71,35.79,14.9,68.78
	c2.62,27.13-8.45,81.02,14.09,94.52c22.54,13.5,32.43-52.15,10.72-170.78c-19.49-106.52,50.47-73.67,52.31-41.38
	c1.85,32.29-0.2,80.8-13.25,148.63c-13.05,67.83-3.56,73.42,13.25,56.36c16.81-17.06,17.75-29.12,8.01-96.37
	C320.41,198.25,392.15,174.91,384.42,235.14z"/>
</svg>
