<?xml version="1.0" encoding="utf-8"?>
<!-- Generator: Adobe Illustrator 26.0.3, SVG Export Plug-In . SVG Version: 6.00 Build 0)  -->
<svg version="1.1" id="Layer_1" xmlns="http://www.w3.org/2000/svg" xmlns:xlink="http://www.w3.org/1999/xlink" x="0px" y="0px"
	 width="500px" height="500px" viewBox="0 0 500 500" enable-background="new 0 0 500 500" xml:space="preserve">
<g>
	<path d="M40.23,463.48l-9.48-1.23c-2.72-0.37-4.67-0.82-5.84-1.34c-1.1-0.6-1.65-1.38-1.65-2.35c0-0.82,0.4-1.41,1.21-1.79
		c2.21,0.52,4.15,0.78,5.84,0.78c4.63,0,8.64-0.97,12.02-2.9c3.38-2.01,5.92-4.69,7.61-8.04c1.76-3.43,2.65-7.19,2.65-11.28
		c0-4.77-1.1-8.86-3.31-12.29c0.81-0.07,1.84-0.11,3.09-0.11h1.77c1.31,0,2.41-0.99,2.55-2.3l0.65-6.41h-2.65
		c-2.43,0-4.7,0.26-6.84,0.78c-2.06,0.45-3.71,1.01-4.96,1.68c-3.53-2.38-7.72-3.57-12.57-3.57c-4.63,0-8.64,1.01-12.02,3.02
		c-3.38,1.94-5.95,4.62-7.72,8.04c-1.76,3.35-2.65,7.07-2.65,11.17c0,3.72,0.7,7.15,2.09,10.28c1.47,3.13,3.6,5.7,6.4,7.71
		c-1.69,0.82-3.05,1.9-4.08,3.24c-0.96,1.34-1.43,2.87-1.43,4.58c0,3.28,1.62,5.92,4.85,7.93c-5.95,3.43-8.93,7.82-8.93,13.18
		c0,4.91,2.32,8.79,6.95,11.62c4.63,2.9,10.84,4.36,18.63,4.36c8.38,0,14.92-1.68,19.63-5.03c4.78-3.35,7.17-7.86,7.17-13.52
		C59.19,470.59,52.87,465.19,40.23,463.48z M22.81,426.62c1.76-2.16,4.26-3.24,7.5-3.24c3.16,0,5.59,1.08,7.28,3.24
		c1.76,2.09,2.65,4.99,2.65,8.71c0,3.72-0.88,6.66-2.65,8.82c-1.69,2.09-4.12,3.13-7.28,3.13c-3.23,0-5.73-1.04-7.5-3.13
		c-1.69-2.16-2.54-5.1-2.54-8.82C20.27,431.61,21.11,428.7,22.81,426.62z M32.95,487.72c-4.7,0-8.34-0.67-10.92-2.01
		c-2.57-1.34-3.86-3.35-3.86-6.03c0-3.5,2.09-6.11,6.28-7.82l12.13,1.79c3.75,0.6,6.43,1.38,8.05,2.35
		c1.62,1.04,2.43,2.61,2.43,4.69C47.06,485.37,42.36,487.72,32.95,487.72z"/>
	<path d="M92.26,413.33c-0.74-0.15-1.54-0.22-2.43-0.22c-2.79,0-5.48,0.71-8.05,2.12c-2.5,1.41-4.56,3.05-6.17,4.91l-0.33-5.92
		H62.49v55.85h13.67v-38.09c0.81-1.56,2.17-2.87,4.08-3.91c1.91-1.12,4.01-1.68,6.28-1.68c1.76,0,3.34,0.19,4.74,0.56L92.26,413.33z
		"/>
	<path d="M131.08,416.56c-3.53-2.16-7.86-3.24-13.01-3.24c-5.59,0-10.4,1.3-14.44,3.91c-4.04,2.53-7.13,5.96-9.26,10.28
		c-2.13,4.32-3.2,9.08-3.2,14.3c0,5.44,1.1,10.39,3.31,14.86c2.28,4.39,5.66,7.93,10.14,10.61c4.56,2.61,10.03,3.91,16.43,3.91
		c3.68,0,7.06-0.37,10.14-1.12c3.16-0.82,5.92-1.86,8.27-3.13l-0.66-11.73c-5.07,3.05-10.58,4.58-16.54,4.58
		c-4.34,0-8.05-1.19-11.14-3.57c-3.09-2.46-5-6.14-5.73-11.06H141c0.59-2.83,0.88-5.36,0.88-7.6c0-4.54-0.92-8.64-2.76-12.29
		C137.36,421.63,134.68,418.72,131.08,416.56z M105.72,435.78c0.74-3.35,2.13-6.03,4.19-8.04c2.06-2.01,4.78-3.02,8.16-3.02
		c3.38,0,5.88,1.12,7.5,3.35c1.62,2.23,2.43,4.8,2.43,7.71H105.72z"/>
	<path d="M185.62,416.56c-3.53-2.16-7.86-3.24-13.01-3.24c-5.59,0-10.4,1.3-14.44,3.91c-4.04,2.53-7.13,5.96-9.26,10.28
		c-2.13,4.32-3.2,9.08-3.2,14.3c0,5.44,1.1,10.39,3.31,14.86c2.28,4.39,5.66,7.93,10.14,10.61c4.56,2.61,10.03,3.91,16.43,3.91
		c3.68,0,7.06-0.37,10.14-1.12c3.16-0.82,5.92-1.86,8.27-3.13l-0.66-11.73c-5.07,3.05-10.58,4.58-16.54,4.58
		c-4.34,0-8.05-1.19-11.14-3.57c-3.09-2.46-5-6.14-5.73-11.06h35.61c0.59-2.83,0.88-5.36,0.88-7.6c0-4.54-0.92-8.64-2.76-12.29
		C191.9,421.63,189.22,418.72,185.62,416.56z M160.26,435.78c0.73-3.35,2.13-6.03,4.19-8.04c2.06-2.01,4.78-3.02,8.16-3.02
		s5.88,1.12,7.5,3.35c1.62,2.23,2.43,4.8,2.43,7.71H160.26z"/>
	<path d="M229.13,413.33c-5.22,0-10.14,1.6-14.77,4.8l-0.22-3.91h-12.79v55.85h13.67v-40.55c2.72-3.2,6.17-4.8,10.36-4.8
		c3.82,0,6.58,1.27,8.27,3.8c1.76,2.46,2.65,6.29,2.65,11.51v30.05h13.67V438.9c0-7.82-1.76-14.04-5.29-18.65
		C241.14,415.63,235.96,413.33,229.13,413.33z"/>
	<path d="M279.93,437.68c-3.23-1.27-5.55-2.23-6.95-2.9c-1.39-0.74-2.5-1.56-3.3-2.46c-0.74-0.89-1.1-2.05-1.1-3.46
		c0-1.79,0.63-3.16,1.87-4.13c1.32-0.97,3.16-1.45,5.52-1.45c2.72,0,5.29,0.52,7.72,1.56c2.5,1.04,5.15,2.53,7.94,4.47l1.21-11.84
		c-5.15-2.9-10.84-4.36-17.09-4.36c-6.25,0-11.21,1.53-14.88,4.58c-3.68,2.98-5.51,6.89-5.51,11.73c0,4.39,1.29,7.89,3.86,10.5
		c2.57,2.53,6.58,4.8,12.02,6.81c3.83,1.49,6.47,2.79,7.94,3.91c1.47,1.04,2.2,2.57,2.2,4.58c0,3.72-2.79,5.59-8.38,5.59
		c-2.86,0-5.66-0.45-8.38-1.34c-2.65-0.97-5.51-2.38-8.6-4.24l-1.21,11.84c3.09,1.41,6.06,2.46,8.93,3.13
		c2.94,0.67,6.18,1.01,9.7,1.01c6.91,0,12.24-1.45,15.98-4.36c3.75-2.9,5.62-7,5.62-12.29c0-4.17-1.18-7.48-3.53-9.94
		C289.15,442.07,285.29,439.76,279.93,437.68z"/>
	<path d="M342.2,417.24c-3.75-2.61-8.23-3.91-13.45-3.91c-3.38,0-6.36,0.52-8.93,1.56c-2.57,0.97-5.03,2.46-7.38,4.47l-1.44-5.14
		h-11.02v77.62c0,3.53,2.86,6.4,6.4,6.4h7.27v-5.99v-25.53c2.13,1.56,4.33,2.68,6.62,3.35c2.35,0.74,5.18,1.12,8.49,1.12
		c5.22,0,9.7-1.3,13.45-3.91c3.75-2.61,6.58-6.11,8.49-10.5c1.91-4.39,2.87-9.23,2.87-14.52c0-5.29-0.96-10.13-2.87-14.52
		C348.78,423.34,345.95,419.84,342.2,417.24z M336.14,454.99c-2.28,3.2-5.44,4.8-9.48,4.8c-4.55,0-7.97-1.56-10.25-4.69
		c-2.28-3.13-3.42-7.41-3.42-12.85c0-5.44,1.14-9.72,3.42-12.85c2.28-3.13,5.7-4.69,10.25-4.69c4.05,0,7.2,1.6,9.48,4.8
		c2.28,3.2,3.42,7.45,3.42,12.73C339.56,447.54,338.42,451.79,336.14,454.99z"/>
	<path d="M403.2,459.35c-0.59-0.37-1.03-1.15-1.32-2.35c-0.22-1.27-0.33-3.31-0.33-6.14v-15.08c0-7.82-1.73-13.52-5.18-17.09
		c-3.38-3.57-8.3-5.36-14.77-5.36c-6.69,0-13.38,1.64-20.06,4.91l1.21,11.28c3.01-1.49,5.66-2.57,7.94-3.24
		c2.35-0.67,4.74-1.01,7.17-1.01c3.45,0,5.92,0.71,7.39,2.12c1.54,1.41,2.39,3.76,2.54,7.04c-4.34,0.15-8.86,0.86-13.56,2.12
		c-4.7,1.19-8.78,3.28-12.24,6.26c-3.45,2.9-5.18,6.78-5.18,11.62c0,5.14,1.51,9.23,4.52,12.29c3.09,2.98,6.91,4.47,11.47,4.47
		c3.38,0,6.58-0.56,9.59-1.68c3.09-1.19,5.51-2.79,7.28-4.8c1.1,2.01,2.68,3.61,4.74,4.8c2.06,1.12,4.59,1.68,7.61,1.68h4.96
		l1.22-11.39h-1.76C404.93,459.79,403.86,459.64,403.2,459.35z M387.88,456.55c-1.32,1.27-2.87,2.27-4.63,3.02
		c-1.76,0.67-3.34,1.01-4.74,1.01c-2.57,0-4.45-0.52-5.62-1.56c-1.18-1.12-1.76-2.83-1.76-5.14c0-3.05,1.69-5.44,5.07-7.15
		c3.38-1.71,7.28-2.68,11.69-2.9V456.55z"/>
	<path d="M431.76,415.22c-2.5,1.41-4.55,3.05-6.17,4.91l-0.33-5.92h-12.79v55.85h13.67v-38.09c0.81-1.56,2.17-2.87,4.08-3.91
		c1.91-1.12,4.01-1.68,6.29-1.68c1.76,0,3.34,0.19,4.74,0.56l0.99-13.63c-0.74-0.15-1.54-0.22-2.43-0.22
		C437.02,413.1,434.34,413.81,431.76,415.22z"/>
	<polygon points="472.67,441.03 492.74,414.22 477.3,414.22 460.22,437.12 460.22,386.29 446.54,386.29 446.54,470.07 
		460.22,470.07 460.22,445.27 477.74,470.07 493.18,470.07 	"/>
	<path d="M245.5,358.76c98.58,0,178.5-79.92,178.5-178.5c0-98.58-79.92-178.5-178.5-178.5S67,81.68,67,180.26
		C67,278.85,146.92,358.76,245.5,358.76z M153.41,141.15c24.36-24.27,34.03-15.59,38.6,4.73c4.77,21.21-6,51.42-2.04,64.83
		c3.96,13.41,10.76,24.03,18.59,23.28c7.83-0.75,19.97-21.81-6.16-102.35c-19.25-59.34,32.41-79.85,37.14-67.5
		c4.73,12.35-15.39,42.14-10.88,68.08c4.52,25.94,8.57,26.19,10.91,50.33c1.92,19.85-6.19,59.29,10.31,69.17
		c16.5,9.88,23.73-38.16,7.85-124.97c-14.26-77.95,36.93-53.91,38.28-30.28c1.35,23.63-0.15,59.13-9.7,108.76
		c-9.55,49.64-2.6,53.73,9.7,41.24c12.3-12.48,12.99-21.31,5.86-70.52c-4.86-33.54,47.64-50.62,41.98-6.55
		c-5.7,44.36-31.49,126.62-86.24,130.32C183.61,304.72,126.71,167.75,153.41,141.15z"/>
</g>
</svg>
