<?xml version="1.0" encoding="utf-8"?>
<!-- Generator: Adobe Illustrator 26.0.3, SVG Export Plug-In . SVG Version: 6.00 Build 0)  -->
<svg version="1.1" id="Layer_1" xmlns="http://www.w3.org/2000/svg" xmlns:xlink="http://www.w3.org/1999/xlink" x="0px" y="0px"
	 width="500px" height="500px" viewBox="0 0 500 500" enable-background="new 0 0 500 500" xml:space="preserve">
<g>
	<path d="M498,250c0,136.79-111.21,248-248,248S2,386.79,2,250S113.21,2,250,2S498,113.21,498,250z M250,41.16
		C134.6,41.16,41.16,134.6,41.16,250S134.6,458.84,250,458.84S458.84,365.4,458.84,250S365.4,41.16,250,41.16z M276.11,378.45
		V221.82c0-14.62-11.48-26.11-26.11-26.11c-14.62,0-26.11,11.48-26.11,26.11v156.63c0,14.62,11.48,26.11,26.11,26.11
		C264.62,404.55,276.11,393.05,276.11,378.45z M250,95.45c-20.35,0-36.55,16.19-36.55,36.55s16.19,36.55,36.55,36.55
		s36.55-16.19,36.55-36.55S270.35,95.45,250,95.45z"/>
</g>
</svg>
